# xmcd
#
# Track frame offsets: 
#        150
#        12937
#        24950
#        36247
#        47152
#        57332
#        68005
#        80200
#        95170
#        108792
#        120087
#        131287
#        144357
#        154907
#        163690
#        173787
#
# Disc length: 2507 seconds
#
# Revision: 2
# Processed by: cddbd v1.5.1PL2 Copyright (c) Steve Scherf et al.
# Submitted via: ExactAudioCopy v0.95b4
#
DISCID=ca09c910
DTITLE=Various Artist - Misc - The Sound Of Funk Volume 9
DYEAR=1900
DGENRE=Funk
TTITLE0=Apples and The Three Oranges - Free and Easy
TTITLE1=Zeke and The Soul Setters - Take It And Get It
TTITLE2=Jimmy Brinson - I Don't Want To Here It Now
TTITLE3=Guy Morris - Cool It
TTITLE4=The Thrillers - Do The Train
TTITLE5=Bare Faxx - Number One Prize
TTITLE6=Brother Soul - Cookies
TTITLE7=Apollis - What Is This
TTITLE8=Tony Lamar With The Experiences Unlimited Band - Funky Wah Wah
TTITLE9=Johnny Holiday - Tormented
TTITLE10=Gene Williams - Whatever You Do, Do It Good
TTITLE11=Joe Wallis - Sound Success
TTITLE12=Marvin Holmes and The Uptights - The Funky Mule (Part 1)
TTITLE13=Bobby Barnes - Times Are Bad
TTITLE14=Willie Smith - I Got A New Thing
TTITLE15=Village Crusaders - Akiwawa
EXTD=Goldmine Soul Supply\nGSCD67\n
EXTT0=
EXTT1=
EXTT2=
EXTT3=
EXTT4=
EXTT5=
EXTT6=
EXTT7=
EXTT8=
EXTT9=
EXTT10=
EXTT11=
EXTT12=
EXTT13=
EXTT14=
EXTT15=
PLAYORDER=
